#N canvas 1227 327 555 473 10;
#X declare -lib mrpeach;
#X obj 253 86 import mrpeach;
#X obj 148 230 packOSC;
#X msg 24 198 /pos/x \$1;
#X msg 161 187 /pos/y \$1;
#X obj 5 -62 grid grid1 200 0 100 200 0 100 1 1 1 10 10 124 28;
#X obj 146 255 udpsend;
#X obj 145 277 tgl 15 0 empty empty empty 17 7 0 10 -262144 -1 -1 1
1;
#X msg 227 237 connect 127.0.0.1 12345;
#X obj 188 153 expr 100-$f1;
#X obj 372 141 udpreceive 12346;
#X obj 372 171 unpackOSC;
#X obj 372 196 print;
#X msg 103 166 /event;
#X connect 1 0 5 0;
#X connect 2 0 1 0;
#X connect 3 0 1 0;
#X connect 4 0 2 0;
#X connect 4 1 8 0;
#X connect 5 0 6 0;
#X connect 7 0 5 0;
#X connect 8 0 3 0;
#X connect 9 0 10 0;
#X connect 10 0 11 0;
#X connect 12 0 1 0;
